<?xml version="1.0" standalone="no"?><!DOCTYPE svg PUBLIC "-//W3C//DTD SVG 1.1//EN" "http://www.w3.org/Graphics/SVG/1.1/DTD/svg11.dtd"><svg t="1766491464636" class="icon" viewBox="0 0 1024 1024" version="1.1" xmlns="http://www.w3.org/2000/svg" p-id="7093" xmlns:xlink="http://www.w3.org/1999/xlink" width="200" height="200"><path d="M53.333333 576C53.333333 322.688 258.688 117.333333 512 117.333333S970.666667 322.688 970.666667 576c0 117.888-38.485333 237.226667-115.157334 320.384a32 32 0 0 1-23.509333 10.282667h-640a32 32 0 0 1-23.509333-10.282667C91.861333 813.226667 53.333333 693.888 53.333333 576zM512 181.333333a394.666667 394.666667 0 0 0-394.666667 394.666667c0 100.138667 31.317333 197.973333 89.130667 266.666667H817.493333c57.813333-68.693333 89.130667-166.528 89.130667-266.666667A394.666667 394.666667 0 0 0 512 181.333333z" fill="#363A3A" p-id="7094"></path><path d="M512 586.666667a53.333333 53.333333 0 1 0 0 106.666666 53.333333 53.333333 0 0 0 0-106.666666zM394.666667 640a117.333333 117.333333 0 1 1 234.666666 0 117.333333 117.333333 0 0 1-234.666666 0z" fill="#363A3A" p-id="7095"></path><path d="M512 394.666667a32 32 0 0 1 32 32v128a32 32 0 0 1-64 0v-128a32 32 0 0 1 32-32zM512 224a32 32 0 0 1 32 32v42.666667a32 32 0 0 1-64 0V256a32 32 0 0 1 32-32zM160 597.333333a32 32 0 0 1 32-32h42.666667a32 32 0 0 1 0 64h-42.666667a32 32 0 0 1-32-32zM254.72 361.386667a32 32 0 0 1 45.226667 0l30.165333 30.165333a32 32 0 1 1-45.226667 45.226667L254.72 406.613333a32 32 0 0 1 0-45.226666zM757.333333 597.333333a32 32 0 0 1 32-32h42.666667a32 32 0 0 1 0 64h-42.666667a32 32 0 0 1-32-32zM778.112 361.386667a32 32 0 0 1 0 45.226666l-30.165333 30.165334a32 32 0 1 1-45.226667-45.226667l30.165333-30.165333a32 32 0 0 1 45.226667 0z" fill="#363A3A" p-id="7096"></path></svg>